<?xml version="1.0" encoding="UTF-8" standalone="no"?>
<!DOCTYPE svg PUBLIC "-//W3C//DTD SVG 1.1//EN" "http://www.w3.org/Graphics/SVG/1.1/DTD/svg11.dtd">
<svg width="100%" height="100%" viewBox="0 0 450 720" version="1.1" xmlns="http://www.w3.org/2000/svg" xmlns:xlink="http://www.w3.org/1999/xlink" xml:space="preserve" xmlns:serif="http://www.serif.com/" style="fill-rule:evenodd;clip-rule:evenodd;stroke-linejoin:round;stroke-miterlimit:2;">
    <g transform="matrix(1,0,0,1,-1123.81,0)">
        <g id="Cafeteria-Floor-1-v2" serif:id="Cafeteria Floor 1 v2" transform="matrix(0.797824,0,0,0.775545,396.631,-809.972)">
            <rect x="911.447" y="1044.39" width="563.139" height="927.704" style="fill:none;"/>
            <g>
                <g transform="matrix(1.25341,0,0,1.10746,-1399.18,300.405)">
                    <path d="M2231.83,857.763L1867.51,857.763C1857.73,857.763 1849.8,866.998 1849.8,878.39L1849.8,1480.09C1849.8,1491.49 1857.73,1500.72 1867.51,1500.72L2214.11,1500.72C2223.89,1500.72 2231.83,1491.49 2231.83,1480.09L2231.83,857.763Z" style="fill:rgb(238,238,238);"/>
                </g>
                <g transform="matrix(1.25341,0,0,1.28942,-1399.18,27.3432)">
                    <path d="M2284.5,811.032C2284.5,806.334 2282.63,801.827 2279.31,798.505C2275.99,795.182 2271.48,793.316 2266.78,793.316L2004.97,793.316C2000.27,793.316 1995.76,795.182 1992.44,798.505C1989.12,801.827 1987.25,806.334 1987.25,811.032L1987.25,1008.69C1987.25,1013.38 1989.12,1017.89 1992.44,1021.21C1995.76,1024.54 2000.27,1026.4 2004.97,1026.4L2266.78,1026.4C2271.48,1026.4 2275.99,1024.54 2279.31,1021.21C2282.63,1017.89 2284.5,1013.38 2284.5,1008.69L2284.5,811.032Z" style="fill:rgb(238,238,238);"/>
                </g>
            </g>
        </g>
        <g id="to-be-deleted-2nd-story" serif:id="to be deleted 2nd story">
        </g>
    </g>
</svg>
