<?xml version="1.0" encoding="UTF-8" standalone="no"?>
<!DOCTYPE svg PUBLIC "-//W3C//DTD SVG 1.1//EN" "http://www.w3.org/Graphics/SVG/1.1/DTD/svg11.dtd">
<svg width="100%" height="100%" viewBox="0 0 390 342" version="1.1" xmlns="http://www.w3.org/2000/svg" xmlns:xlink="http://www.w3.org/1999/xlink" xml:space="preserve" xmlns:serif="http://www.serif.com/" style="fill-rule:evenodd;clip-rule:evenodd;stroke-linejoin:round;stroke-miterlimit:2;">
    <g transform="matrix(1,0,0,1,-729.163,-870.819)">
        <g id="Cafeteria-Floor-2" serif:id="Cafeteria Floor 2" transform="matrix(0.776127,0,0,0.945823,785.379,426.331)">
            <rect x="-72.432" y="469.948" width="501.97" height="360.958" style="fill:none;"/>
            <g>
                <g transform="matrix(1.28845,0,0,1.0802,-2448.58,-452.646)">
                    <path d="M1992.77,867.527C1992.77,864.381 1991.5,861.364 1989.23,859.139C1986.95,856.914 1983.87,855.665 1980.65,855.665C1952.9,855.665 1885.02,855.665 1857.63,855.665C1854.51,855.665 1851.52,856.877 1849.32,859.034C1847.11,861.191 1845.87,864.117 1845.87,867.167C1845.87,911.556 1845.87,1071.4 1845.87,1115.36C1845.87,1118.35 1847.09,1121.21 1849.24,1123.32C1851.4,1125.43 1854.32,1126.62 1857.37,1126.62C1891.98,1126.62 1992.77,1126.62 1992.77,1126.62L1992.77,867.527Z" style="fill:rgb(238,238,238);"/>
                </g>
                <g transform="matrix(1.28845,0,0,1.05728,-2448.58,-433.034)">
                    <path d="M2231.34,1031.43C2231.34,1024.94 2226.09,1019.69 2219.6,1019.69C2170.16,1019.69 1981.45,1019.69 1981.45,1019.69L1981.45,1182.21C1981.45,1188.67 1986.69,1193.92 1993.16,1193.92C2035.06,1193.92 2177.35,1193.92 2219.49,1193.92C2222.64,1193.92 2225.65,1192.67 2227.87,1190.44C2230.1,1188.22 2231.34,1185.21 2231.34,1182.07C2231.34,1150.23 2231.34,1063.13 2231.34,1031.43Z" style="fill:rgb(238,238,238);"/>
                </g>
            </g>
        </g>
        <g id="to-be-deleted-2nd-story" serif:id="to be deleted 2nd story">
        </g>
    </g>
</svg>
