<?xml version="1.0" encoding="UTF-8" standalone="no"?>
<!DOCTYPE svg PUBLIC "-//W3C//DTD SVG 1.1//EN" "http://www.w3.org/Graphics/SVG/1.1/DTD/svg11.dtd">
<svg width="100%" height="100%" viewBox="0 0 703 377" version="1.1" xmlns="http://www.w3.org/2000/svg" xmlns:xlink="http://www.w3.org/1999/xlink" xml:space="preserve" xmlns:serif="http://www.serif.com/" style="fill-rule:evenodd;clip-rule:evenodd;stroke-linejoin:round;stroke-miterlimit:2;">
    <g transform="matrix(1,0,0,1,-717.252,-1267.17)">
        <g id="Library" transform="matrix(0.631102,0,0,0.732237,1205.57,559.547)">
            <rect x="-773.759" y="966.389" width="1113.23" height="514.828" style="fill:none;"/>
            <g transform="matrix(1.58453,0,0,1.36568,-3189.96,-1191.58)">
                <g transform="matrix(1.26377,0,0,1,1117.13,441.58)">
                    <path d="M874.023,1257.65C874.023,1254.11 872.91,1250.71 870.928,1248.21C868.946,1245.7 866.258,1244.29 863.455,1244.29C816.359,1244.29 627.903,1244.29 627.903,1244.29L627.903,1410.81L874.023,1410.81L874.023,1257.65Z" style="fill:rgb(235,235,235);"/>
                </g>
                <g transform="matrix(0.983107,0,0,0.466531,1286.9,1241.81)">
                    <path d="M638.136,884.476C638.136,877.575 636.835,870.957 634.519,866.078C632.204,861.198 629.063,858.457 625.789,858.457C559.129,858.457 245.198,858.457 245.198,858.457L245.198,1473.76C245.198,1488.28 250.785,1500.06 257.678,1500.06C316.696,1500.06 567.371,1500.06 625.887,1500.06C632.652,1500.06 638.136,1488.5 638.136,1474.24C638.136,1370.97 638.136,988.122 638.136,884.476Z" style="fill:rgb(235,235,235);"/>
                </g>
                <g transform="matrix(0.891409,0,0,0.810059,233.907,672.401)">
                    <path d="M1605.57,1137.62C1605.57,1129.87 1599.87,1123.6 1592.83,1123.6L1465.15,1123.6C1461.71,1123.6 1458.41,1125.1 1455.98,1127.78C1453.55,1130.45 1452.18,1134.08 1452.18,1137.86C1452.18,1162.52 1452.18,1210.48 1452.18,1210.48L1605.57,1210.48L1605.57,1137.62Z" style="fill:rgb(235,235,235);"/>
                </g>
                <g transform="matrix(0.903425,0,0,1,288.267,442.482)">
                    <path d="M2140.16,1341.37L2034.82,1341.37L2034.82,1452.26C2034.82,1464.61 2040.25,1476.45 2049.92,1485.18C2059.58,1493.92 2072.69,1498.82 2086.36,1498.82L2140.16,1498.82L2140.16,1341.37Z" style="fill:rgb(235,235,235);"/>
                </g>
            </g>
        </g>
        <g id="to-be-deleted-2nd-story" serif:id="to be deleted 2nd story">
        </g>
    </g>
</svg>
