<?xml version="1.0" encoding="UTF-8" standalone="no"?>
<!DOCTYPE svg PUBLIC "-//W3C//DTD SVG 1.1//EN" "http://www.w3.org/Graphics/SVG/1.1/DTD/svg11.dtd">
<svg width="100%" height="100%" viewBox="0 0 425 545" version="1.1" xmlns="http://www.w3.org/2000/svg" xmlns:xlink="http://www.w3.org/1999/xlink" xml:space="preserve" xmlns:serif="http://www.serif.com/" style="fill-rule:evenodd;clip-rule:evenodd;stroke-linejoin:round;stroke-miterlimit:2;">
    <g transform="matrix(1,0,0,1,-2073.76,-1181.02)">
        <g id="Office" transform="matrix(0.942968,0,0,0.681205,-1082.46,828.182)">
            <rect x="3347.12" y="517.962" width="449.894" height="799.979" style="fill:none;"/>
            <clipPath id="_clip1">
                <rect x="3347.12" y="517.962" width="449.894" height="799.979"/>
            </clipPath>
            <g clip-path="url(#_clip1)">
                <g id="Admin" transform="matrix(1.06048,0,0,1.46799,2468.98,-1469.03)">
                    <clipPath id="_clip2">
                        <rect x="827.216" y="1355.14" width="425.799" height="544.47"/>
                    </clipPath>
                    <g clip-path="url(#_clip2)">
                        <g transform="matrix(1.39099,0,0,1,-1997.79,359.033)">
                            <path d="M2266.64,1194.82L2039.41,1194.82C2037.16,1194.82 2035,1196.07 2033.41,1198.28C2031.82,1200.5 2030.92,1203.5 2030.92,1206.63L2030.92,1528.82C2030.92,1535.32 2034.71,1540.58 2039.38,1540.58C2076.17,1540.58 2222.12,1540.58 2258.43,1540.58C2260.6,1540.58 2262.69,1539.38 2264.23,1537.24C2265.77,1535.1 2266.64,1532.19 2266.64,1529.16C2266.64,1469.35 2266.64,1194.82 2266.64,1194.82Z" style="fill:rgb(235,235,235);"/>
                        </g>
                        <g transform="matrix(1,0,0,1.31217,-1203.71,-47.5897)">
                            <path d="M2456.72,1047.91C2456.72,1019.44 2426.39,996.327 2389.04,996.327L2253.67,996.327C2216.32,996.327 2185.99,1019.44 2185.99,1047.91L2185.99,1250.98C2185.99,1279.45 2216.32,1302.56 2253.67,1302.56L2389.04,1302.56C2426.39,1302.56 2456.72,1279.45 2456.72,1250.98L2456.72,1047.91Z" style="fill:rgb(235,235,235);"/>
                        </g>
                        <g transform="matrix(1.2027,0,0,1.33112,-1570.88,-235.559)">
                            <path d="M2266.64,1194.82L2041.13,1194.82C2035.49,1194.82 2030.92,1198.95 2030.92,1204.04C2030.92,1258.95 2030.92,1540.58 2030.92,1540.58L2266.64,1540.58L2266.64,1194.82Z" style="fill:rgb(235,235,235);"/>
                        </g>
                    </g>
                </g>
            </g>
        </g>
        <g id="to-be-deleted-2nd-story" serif:id="to be deleted 2nd story">
        </g>
    </g>
</svg>
