<?xml version="1.0" encoding="UTF-8" standalone="no"?>
<!DOCTYPE svg PUBLIC "-//W3C//DTD SVG 1.1//EN" "http://www.w3.org/Graphics/SVG/1.1/DTD/svg11.dtd">
<svg width="100%" height="100%" viewBox="0 0 431 543" version="1.1" xmlns="http://www.w3.org/2000/svg" xmlns:xlink="http://www.w3.org/1999/xlink" xml:space="preserve" xmlns:serif="http://www.serif.com/" style="fill-rule:evenodd;clip-rule:evenodd;stroke-linejoin:round;stroke-miterlimit:2;">
    <g transform="matrix(1,0,0,1,-2311.58,-795.538)">
        <g id="Mezzanine" transform="matrix(0.851092,0,0,1.09039,3232.04,407.008)">
            <rect x="-1081.51" y="356.321" width="505.481" height="497.298" style="fill:none;"/>
            <g transform="matrix(1,0,0,1,2.12036,2.28671)">
                <g transform="matrix(1.17496,0,0,0.917102,-2067.26,-290.963)">
                    <path d="M940.581,1157.02L858.373,1157.02C848.588,1157.02 840.656,1164.95 840.656,1174.73C840.656,1189.44 840.656,1210.26 840.656,1224.97C840.656,1234.75 848.588,1242.68 858.373,1242.68C876.555,1242.68 904.683,1242.68 922.865,1242.68C932.649,1242.68 940.581,1234.75 940.581,1224.97C940.581,1199.88 940.581,1157.02 940.581,1157.02Z" style="fill:rgb(235,235,235);"/>
                </g>
                <g transform="matrix(1.17482,0,0,0.903511,-2208.59,-99.7491)">
                    <path d="M1387.72,765.73L1034.33,765.73C1024.54,765.73 1016.61,773.782 1016.61,783.713C1016.61,842.824 1016.61,1027.37 1016.61,1027.37L1370,1027.37C1379.79,1027.37 1387.72,1019.32 1387.72,1009.38C1387.72,950.272 1387.72,765.73 1387.72,765.73Z" style="fill:rgb(238,238,238);"/>
                </g>
                <g transform="matrix(0.69232,0,0,0.917102,-1583.89,-296.969)">
                    <path d="M1452.53,713.267L1338.5,713.267C1146.08,713.267 990.098,805.177 990.098,918.555L990.098,1159.21L1452.53,1159.21L1452.53,713.267Z" style="fill:rgb(235,235,235);"/>
                </g>
            </g>
        </g>
        <g id="to-be-deleted-2nd-story" serif:id="to be deleted 2nd story">
        </g>
    </g>
</svg>
