<?xml version="1.0" encoding="UTF-8" standalone="no"?>
<!DOCTYPE svg PUBLIC "-//W3C//DTD SVG 1.1//EN" "http://www.w3.org/Graphics/SVG/1.1/DTD/svg11.dtd">
<svg width="100%" height="100%" viewBox="0 0 431 543" version="1.1" xmlns="http://www.w3.org/2000/svg" xmlns:xlink="http://www.w3.org/1999/xlink" xml:space="preserve" xmlns:serif="http://www.serif.com/" style="fill-rule:evenodd;clip-rule:evenodd;stroke-linejoin:round;stroke-miterlimit:2;">
    <g transform="matrix(1,0,0,1,-1309.18,-822.747)">
        <g id="Mezzanine" transform="matrix(0.851092,0,0,1.09039,2229.64,434.217)">
            <rect x="-1081.51" y="356.321" width="505.481" height="497.298" style="fill:none;"/>
            <g transform="matrix(1,0,0,1,2.12036,2.28671)">
                <g transform="matrix(1.17496,0,0,0.917102,-2067.26,-290.963)">
                    <path d="M940.581,1157.02L852.847,1157.02C849.614,1157.02 846.513,1158.3 844.227,1160.59C841.941,1162.87 840.656,1165.97 840.656,1169.21C840.656,1185.62 840.656,1214.65 840.656,1230.87C840.656,1237.39 845.944,1242.68 852.467,1242.68C871.695,1242.68 909.543,1242.68 928.77,1242.68C935.293,1242.68 940.581,1237.39 940.581,1230.87C940.581,1207.38 940.581,1157.02 940.581,1157.02Z" style="fill:rgb(235,235,235);"/>
                </g>
                <g transform="matrix(1.17482,0,0,0.903511,-2208.59,-99.7491)">
                    <path d="M1387.72,765.73L1028.19,765.73C1025.12,765.73 1022.18,766.969 1020,769.173C1017.83,771.378 1016.61,774.368 1016.61,777.486C1016.61,828.404 1016.61,1027.37 1016.61,1027.37L1376.22,1027.37C1382.57,1027.37 1387.72,1022.14 1387.72,1015.69C1387.72,964.901 1387.72,765.73 1387.72,765.73Z" style="fill:rgb(238,238,238);"/>
                </g>
                <g transform="matrix(0.69232,0,0,0.917102,-1583.89,-296.969)">
                    <path d="M1452.53,713.267L1338.5,713.267C1146.08,713.267 990.098,805.177 990.098,918.555L990.098,1159.21L1452.53,1159.21L1452.53,713.267Z" style="fill:rgb(235,235,235);"/>
                </g>
            </g>
        </g>
        <g id="to-be-deleted-2nd-story" serif:id="to be deleted 2nd story">
        </g>
    </g>
</svg>
