<?xml version="1.0" encoding="UTF-8" standalone="no"?>
<!DOCTYPE svg PUBLIC "-//W3C//DTD SVG 1.1//EN" "http://www.w3.org/Graphics/SVG/1.1/DTD/svg11.dtd">
<svg width="100%" height="100%" viewBox="0 0 402 611" version="1.1" xmlns="http://www.w3.org/2000/svg" xmlns:xlink="http://www.w3.org/1999/xlink" xml:space="preserve" xmlns:serif="http://www.serif.com/" style="fill-rule:evenodd;clip-rule:evenodd;stroke-linejoin:round;stroke-miterlimit:2;">
    <g transform="matrix(1,0,0,1,0,-824.938)">
        <g id="Theater" transform="matrix(0.238599,0,0,0.606987,-225.997,-353.834)">
            <rect x="947.185" y="1942.01" width="1684.21" height="1006.15" style="fill:none;"/>
            <g transform="matrix(17.4631,0,0,6.86451,-8058.13,-4895.56)">
                <path d="M611.049,1000.91C611.049,999.787 610.601,998.705 609.804,997.908C609.007,997.11 607.925,996.662 606.797,996.662L520.852,996.662C519.725,996.662 518.643,997.11 517.846,997.908C517.048,998.705 516.601,999.787 516.601,1000.91L516.601,1027.98C516.601,1029.11 517.048,1030.19 517.846,1030.99C518.643,1031.79 519.725,1032.23 520.852,1032.23L606.731,1032.23C609.116,1032.23 611.049,1030.3 611.049,1027.91L611.049,1000.91Z" style="fill:rgb(235,235,235);"/>
            </g>
            <g transform="matrix(17.4631,0,0,6.86451,-8058.13,-4895.56)">
                <path d="M591.865,1019.21L527.031,1019.68L519.128,1139.17L559.008,1141.48L600.394,1138.86L591.865,1019.21Z" style="fill:rgb(235,235,235);"/>
            </g>
        </g>
        <g id="to-be-deleted-2nd-story" serif:id="to be deleted 2nd story">
        </g>
    </g>
</svg>
